<svg width="29" height="29" viewBox="0 0 29 29" xmlns="http://www.w3.org/2000/svg">
<g clip-path="url(#clip0)">
<path d="M10.0186 12.4446V23.1161C10.0186 23.5906 9.71943 24.0127 9.27283 24.169C8.64089 24.3912 7.87832 24.5084 7.06662 24.5084C4.73202 24.5084 2.221 23.5504 2.221 21.447V7.79215C2.16853 6.85429 2.49566 5.1974 4.06658 4.30085C4.79566 3.8844 8.62414 1.42251 10.5468 0.17873C10.8895 -0.0434532 11.3272 -0.0590842 11.6867 0.135187C12.0462 0.331691 12.2695 0.707952 12.2695 1.11659V2.73328C12.2695 3.34959 11.7693 3.84979 11.153 3.84979C10.6729 3.84979 10.2632 3.54721 10.1057 3.12071C8.36846 4.23721 5.80944 5.87624 5.17415 6.2391C4.6025 6.56623 4.47857 7.16691 4.45401 7.49293C4.45401 7.85914 4.53328 8.1472 4.67619 8.30463C5.07255 8.73671 6.39337 8.46764 7.83477 7.60235C9.21923 6.77167 16.0478 2.22528 16.1159 2.1795C16.4609 1.95062 16.9008 1.9294 17.2614 2.12479C17.6254 2.31906 17.852 2.69756 17.852 3.10955V3.23683C17.852 3.60974 17.6656 3.95809 17.3563 4.16576C17.3563 4.16576 12.6156 7.32992 12.1958 7.599C10.5892 8.63288 10.0186 9.90122 10.0186 12.4446ZM26.784 7.05638V21.5508C26.784 21.9338 26.5864 22.291 26.2615 22.4954C26.2615 22.4954 19.7523 27.5509 18.4315 28.3536C17.737 28.7768 16.8528 29.0001 15.8758 29.0001C13.5546 29.0001 11.153 27.744 11.153 25.6439V12.1164V11.7892C11.153 11.7848 11.1564 11.7803 11.1564 11.7747C11.1787 10.9574 11.3696 9.79069 12.8892 8.66972C13.8002 7.99759 19.2264 4.2975 19.4564 4.14119C19.7992 3.90896 20.2425 3.8844 20.6064 4.07644C20.9726 4.26959 21.2015 4.6492 21.2015 5.06342V6.68012C21.2015 7.29642 20.7024 7.79662 20.085 7.79662C19.6239 7.79662 19.2276 7.51749 19.0578 7.11778C17.3261 8.30239 14.7839 10.0475 14.2145 10.4662C13.4954 10.9976 13.3994 11.3482 13.3871 11.7982C13.3894 12.132 13.4798 12.3866 13.6629 12.554C14.2323 13.0754 15.7653 12.8566 17.277 11.95C18.3958 11.2779 23.2168 7.55545 24.9786 6.17769C25.3169 5.91643 25.7725 5.86842 26.1566 6.05488C26.5406 6.24133 26.784 6.62876 26.784 7.05638ZM24.551 12.0315L18.9685 16.3624V18.5954L24.551 14.2645V12.0315Z"/>
</g>
<defs>
<clipPath id="clip0">
<rect width="29" height="29"/>
</clipPath>
</defs>
</svg>
