<svg width="30" height="30" viewBox="0 0 30 30" fill="none" xmlns="http://www.w3.org/2000/svg">
<path d="M30.0658 17.878L27.2617 15.7937C27.3486 15.0662 27.3486 14.3317 27.2617 13.6042L30.0684 11.5186C30.5944 11.116 30.7349 10.4099 30.4002 9.85233L27.4828 5.05891C27.1468 4.49783 26.4312 4.2528 25.796 4.48135L22.491 5.74528C21.8699 5.31696 21.2046 4.94976 20.5054 4.64934L19.9982 1.31192C19.9067 0.671203 19.3284 0.194971 18.6482 0.200239H12.8009C12.1263 0.196387 11.5527 0.667295 11.4585 1.30223L10.9501 4.64928C10.253 4.95259 9.58877 5.32008 8.96705 5.74647L5.65306 4.4801C5.02443 4.24453 4.30946 4.48661 3.97893 5.04679L1.05905 9.8487C0.715294 10.4072 0.856811 11.121 1.39082 11.5223L4.19499 13.6066C4.10722 14.3341 4.10722 15.0687 4.19499 15.7961L1.38826 17.8805C0.861399 18.2826 0.720181 18.989 1.05523 19.5468L3.97131 24.3414C4.3069 24.9029 5.02294 25.1481 5.65813 24.919L8.96318 23.6551C9.58478 24.0836 10.2505 24.4512 10.95 24.7523L11.4585 28.0872C11.548 28.7263 12.1227 29.2027 12.8008 29.2001H18.6482C19.324 29.2053 19.8995 28.7342 19.9943 28.0981L20.5028 24.7511C21.1998 24.4477 21.8639 24.0802 22.4858 23.6539L25.8035 24.9214C26.4322 25.1564 27.1468 24.9145 27.4777 24.3548L30.4064 19.5335C30.7343 18.9768 30.5902 18.2763 30.0658 17.878ZM15.7245 20.7418C12.2143 20.7418 9.36866 18.0369 9.36866 14.7001C9.36866 11.3634 12.2142 8.65846 15.7245 8.65846C19.2348 8.65846 22.0804 11.3634 22.0804 14.7001C22.0761 18.0352 19.233 20.7378 15.7245 20.7418Z" fill="#E0C498"/>
</svg>
