<svg width="30" height="30" viewBox="0 0 30 30" fill="none" xmlns="http://www.w3.org/2000/svg">
<g clip-path="url(#clip0)">
<path d="M17.9924 6.68633C19.3333 7.52705 20.2736 8.94972 20.4448 10.6011C20.9916 10.8566 21.5985 11.0036 22.242 11.0036C24.5912 11.0036 26.4952 9.09956 26.4952 6.75075C26.4952 4.40158 24.5912 2.49756 22.242 2.49756C19.9153 2.49828 18.0279 4.36828 17.9924 6.68633ZM15.2061 15.3947C17.5552 15.3947 19.4593 13.4903 19.4593 11.1415C19.4593 8.79265 17.5549 6.88864 15.2061 6.88864C12.8573 6.88864 10.9522 8.79302 10.9522 11.1418C10.9522 13.4906 12.8573 15.3947 15.2061 15.3947ZM17.0102 15.6845H13.4012C10.3984 15.6845 7.95553 18.1278 7.95553 21.1306V25.5441L7.96675 25.6132L8.27076 25.7084C11.1364 26.6038 13.626 26.9024 15.6751 26.9024C19.6775 26.9024 21.9974 25.7613 22.1403 25.6885L22.4244 25.5448H22.4548V21.1306C22.4559 18.1278 20.013 15.6845 17.0102 15.6845ZM24.0469 11.2938H20.4657C20.427 12.7266 19.8154 14.0169 18.848 14.9448C21.5171 15.7385 23.47 18.2136 23.47 21.1371V22.4972C27.0059 22.3676 29.0434 21.3655 29.1777 21.2982L29.4618 21.1541H29.4922V16.7392C29.4922 13.7367 27.0493 11.2938 24.0469 11.2938ZM7.74309 11.0043C8.57513 11.0043 9.34926 10.7615 10.005 10.3478C10.2135 8.98809 10.9424 7.79993 11.9836 6.99069C11.988 6.91107 11.9956 6.83218 11.9956 6.75183C11.9956 4.40266 10.0912 2.49864 7.74309 2.49864C5.39356 2.49864 3.4899 4.40266 3.4899 6.75183C3.4899 9.09992 5.39356 11.0043 7.74309 11.0043ZM11.5627 14.9448C10.6 14.0216 9.99057 12.7382 9.94605 11.3141C9.81323 11.3043 9.68185 11.2938 9.5465 11.2938H5.93788C2.93509 11.2938 0.492188 13.7367 0.492188 16.7392V21.1534L0.503407 21.2214L0.807413 21.3173C3.10628 22.035 5.15796 22.3658 6.94001 22.47V21.1371C6.94073 18.2136 8.89289 15.7392 11.5627 14.9448Z" fill="#E0C498"/>
</g>
<defs>
<clipPath id="clip0">
<rect width="29" height="29" fill="white" transform="translate(0.492188 0.200195)"/>
</clipPath>
</defs>
</svg>
